<svg width="160" height="48" viewBox="0 0 160 48" fill="none" xmlns="http://www.w3.org/2000/svg">
<rect width="160" height="48" rx="8" fill="#1A2F45"/>
<path d="M63.9088 12.4629C65.6107 12.4629 66.6165 13.5223 66.6165 15.3228C66.6165 17.1232 65.6144 18.1863 63.9088 18.1863H61.9805V12.4629H63.9088ZM62.6962 17.5432H63.8611C65.1616 17.5432 65.8848 16.7499 65.8848 15.3302C65.8848 13.9106 65.1653 13.1051 63.8611 13.1051H62.6962V17.5432Z" fill="white"/>
<path d="M67.5996 16.1219C67.5996 14.8049 68.3706 13.9882 69.5158 13.9882C70.661 13.9882 71.4282 14.8049 71.4282 16.1219C71.4282 17.4388 70.6572 18.2555 69.5158 18.2555C68.3743 18.2555 67.5996 17.4342 67.5996 16.1219ZM70.7246 16.1219C70.7246 15.1502 70.2474 14.5949 69.5158 14.5949C68.7841 14.5949 68.3032 15.1502 68.3032 16.1219C68.3032 17.0935 68.7841 17.6489 69.5158 17.6489C70.2474 17.6489 70.7246 17.0935 70.7246 16.1219Z" fill="white"/>
<path d="M76.6385 18.1842H75.9349L75.0002 14.9911H74.9843L74.0543 18.1842H73.3507L72.1934 14.0596H72.881L73.7081 17.4151H73.724L74.6587 14.0596H75.3267L76.2652 17.4151H76.2811L77.1082 14.0596H77.7921L76.6394 18.1842H76.6385Z" fill="white"/>
<path d="M78.7617 14.06H79.4138V14.7181H79.4298C79.6599 14.2738 80.1015 13.9882 80.7415 13.9882C81.6481 13.9882 82.173 14.5715 82.173 15.5077V18.1846H81.4816V15.63C81.4816 14.9635 81.1672 14.5986 80.531 14.5986C79.8948 14.5986 79.4531 15.0587 79.4531 15.7569V18.1846H78.7617V14.06Z" fill="white"/>
<path d="M83.4961 12.4629H84.1875V18.1863H83.4961V12.4629Z" fill="white"/>
<path d="M85.3262 16.1219C85.3262 14.8049 86.0971 13.9882 87.2423 13.9882C88.3875 13.9882 89.1547 14.8049 89.1547 16.1219C89.1547 17.4388 88.3838 18.2555 87.2423 18.2555C86.1009 18.2555 85.3262 17.4342 85.3262 16.1219ZM88.4511 16.1219C88.4511 15.1502 87.974 14.5949 87.2423 14.5949C86.5107 14.5949 86.0298 15.1502 86.0298 16.1219C86.0298 17.0935 86.5107 17.6489 87.2423 17.6489C87.974 17.6489 88.4511 17.0935 88.4511 16.1219Z" fill="white"/>
<path d="M90.0898 17.0188C90.0898 16.3132 90.6344 15.8689 91.5887 15.8129L92.7732 15.7457V15.4004C92.7732 14.8963 92.4392 14.5949 91.8666 14.5949C91.3342 14.5949 91.0002 14.845 90.9123 15.2491H90.2442C90.2919 14.5351 90.9038 13.9882 91.8825 13.9882C92.8612 13.9882 93.4646 14.5118 93.4646 15.3332V18.1846H92.8088V17.4743H92.7928C92.5468 17.9466 92.0219 18.2555 91.4652 18.2555C90.6419 18.2555 90.0898 17.7599 90.0898 17.0179V17.0188ZM92.7732 16.6184V16.2815L91.6682 16.3487C91.1115 16.3841 90.7934 16.6305 90.7934 17.0188C90.7934 17.4071 91.1237 17.6694 91.6205 17.6694C92.2726 17.6694 92.7732 17.213 92.7732 16.6184Z" fill="white"/>
<path d="M94.5469 16.1236C94.5469 14.8309 95.2589 13.9899 96.3002 13.9899C96.8925 13.9899 97.3696 14.2792 97.6166 14.7319H97.6325V12.4629H98.324V18.1863H97.6644V17.4882H97.6522C97.3855 17.9642 96.9131 18.2573 96.3161 18.2573C95.2626 18.2573 94.5469 17.4163 94.5469 16.1236ZM95.2542 16.1236C95.2542 17.0598 95.7155 17.6506 96.4471 17.6506C97.1788 17.6506 97.6363 17.0476 97.6363 16.1236C97.6363 15.1995 97.1591 14.5966 96.4471 14.5966C95.7351 14.5966 95.2542 15.1911 95.2542 16.1236Z" fill="white"/>
<path d="M101.541 16.1219C101.541 14.8049 102.312 13.9882 103.457 13.9882C104.602 13.9882 105.37 14.8049 105.37 16.1219C105.37 17.4388 104.599 18.2555 103.457 18.2555C102.316 18.2555 101.541 17.4342 101.541 16.1219ZM104.666 16.1219C104.666 15.1502 104.189 14.5949 103.457 14.5949C102.726 14.5949 102.245 15.1502 102.245 16.1219C102.245 17.0935 102.726 17.6489 103.457 17.6489C104.189 17.6489 104.666 17.0935 104.666 16.1219Z" fill="white"/>
<path d="M106.473 14.06H107.125V14.7181H107.141C107.371 14.2738 107.812 13.9882 108.452 13.9882C109.359 13.9882 109.884 14.5715 109.884 15.5077V18.1846H109.192V15.63C109.192 14.9635 108.878 14.5986 108.242 14.5986C107.606 14.5986 107.164 15.0587 107.164 15.7569V18.1846H106.473V14.06Z" fill="white"/>
<path d="M114.16 13.0645V14.0604H114.962V14.6279H114.16V17.0789C114.16 17.456 114.319 17.6259 114.672 17.6259C114.752 17.6259 114.911 17.6137 114.959 17.6063V18.1849C114.875 18.2045 114.684 18.2167 114.522 18.2167C113.762 18.2167 113.468 17.9077 113.468 17.1144V14.6279H112.852V14.0604H113.468V13.0645H114.16Z" fill="white"/>
<path d="M116.141 12.4619H116.832V14.7188H116.848C117.078 14.2586 117.532 13.9889 118.16 13.9889C119.066 13.9889 119.615 14.5993 119.615 15.5196V18.1853H118.923V15.6465C118.923 14.9923 118.593 14.5993 117.945 14.5993C117.258 14.5993 116.832 15.0669 116.832 15.781V18.1844H116.141V12.4609V12.4619Z" fill="white"/>
<path d="M124.325 17.002C124.206 17.7235 123.506 18.2555 122.603 18.2555C121.419 18.2555 120.699 17.4342 120.699 16.1377C120.699 14.8413 121.431 13.9882 122.571 13.9882C123.712 13.9882 124.376 14.7974 124.376 16.0463V16.3076H121.41V16.3477C121.41 17.1374 121.875 17.6563 122.619 17.6563C123.144 17.6563 123.529 17.3903 123.645 17.002H124.325ZM121.414 15.7681H123.66C123.645 15.0783 123.211 14.5865 122.559 14.5865C121.907 14.5865 121.458 15.0821 121.414 15.7681Z" fill="white"/>
<path d="M65.5411 22.7715H67.3309L71.2063 33.4176H69.4688L68.493 30.54H64.3809L63.3976 33.4176H61.6602L65.543 22.7715H65.5411ZM64.8235 29.2118H68.0401L66.4505 24.5346H66.4206L64.8235 29.2118Z" fill="white"/>
<path d="M72.9473 25.6553H74.5444V26.9909H74.5818C75.0477 26.0688 75.9057 25.5078 77.0144 25.5078C78.996 25.5078 80.2685 27.0572 80.2685 29.5363V29.5437C80.2685 32.0153 78.9895 33.5722 77.0369 33.5722C75.9347 33.5722 75.0402 33.0112 74.5818 32.1114H74.5444V35.9999H72.9473V25.6562V25.6553ZM78.6414 29.5437V29.5363C78.6414 27.8833 77.8499 26.8733 76.5999 26.8733C75.3499 26.8733 74.5369 27.9206 74.5369 29.5363V29.5437C74.5369 31.1519 75.3948 32.2001 76.5999 32.2001C77.805 32.2001 78.6414 31.1818 78.6414 29.5437Z" fill="white"/>
<path d="M82.2617 25.6553H83.8588V26.9909H83.8962C84.3622 26.0688 85.2201 25.5078 86.3298 25.5078C88.3114 25.5078 89.5839 27.0572 89.5839 29.5363V29.5437C89.5839 32.0153 88.3049 33.5722 86.3522 33.5722C85.2501 33.5722 84.3556 33.0112 83.8972 32.1114H83.8598V35.9999H82.2627V25.6562L82.2617 25.6553ZM87.9559 29.5437V29.5363C87.9559 27.8833 87.1644 26.8733 85.9144 26.8733C84.6644 26.8733 83.8513 27.9206 83.8513 29.5363V29.5437C83.8513 31.1519 84.7093 32.2001 85.9144 32.2001C87.1195 32.2001 87.9559 31.1818 87.9559 29.5437Z" fill="white"/>
<path d="M95.1208 30.5844L95.1133 30.4733H96.7254L96.7403 30.5694C96.8882 31.5504 97.8715 32.1627 99.2992 32.1627C100.727 32.1627 101.629 31.5205 101.629 30.5246V30.5172C101.629 29.6613 101.045 29.1964 99.6323 28.8866L98.4712 28.643C96.3782 28.2005 95.365 27.241 95.365 25.6627V25.6552C95.3724 23.8407 96.977 22.5938 99.2328 22.5938C101.489 22.5938 102.982 23.8034 103.093 25.589L103.101 25.714H101.489L101.481 25.6104C101.333 24.622 100.475 24.0246 99.2104 24.0246C97.8865 24.0321 97.0435 24.6593 97.0435 25.589V25.5964C97.0435 26.3935 97.6497 26.8798 98.9811 27.1682L100.15 27.4118C102.353 27.8767 103.3 28.769 103.3 30.4145V30.422C103.3 32.3625 101.762 33.5945 99.2328 33.5945C96.8367 33.5945 95.2546 32.4586 95.1208 30.5844Z" fill="white"/>
<path d="M105.805 31.3733V26.9249H104.688V25.6555H105.805V23.6338H107.439V25.6555H108.896V26.9249H107.439V31.2781C107.439 32.0678 107.794 32.3039 108.467 32.3039C108.638 32.3039 108.778 32.289 108.896 32.274V33.5061C108.711 33.536 108.408 33.5724 108.083 33.5724C106.545 33.5724 105.805 32.9227 105.805 31.3743V31.3733Z" fill="white"/>
<path d="M110.438 29.5363V29.5213C110.438 27.0423 111.909 25.5078 114.12 25.5078C116.331 25.5078 117.818 27.0348 117.818 29.5213V29.5363C117.818 32.0377 116.353 33.5722 114.128 33.5722C111.902 33.5722 110.438 32.0302 110.438 29.5363ZM116.184 29.5363V29.5213C116.184 27.8244 115.371 26.8435 114.121 26.8435C112.871 26.8435 112.073 27.8244 112.073 29.5213V29.5363C112.073 31.2555 112.886 32.2365 114.136 32.2365C115.386 32.2365 116.184 31.2481 116.184 29.5363Z" fill="white"/>
<path d="M119.811 25.6553H121.408V26.9835H121.445C121.697 26.0762 122.347 25.5078 123.235 25.5078C123.464 25.5078 123.663 25.5451 123.79 25.5666V27.0497C123.664 26.9984 123.383 26.9611 123.072 26.9611C122.044 26.9611 121.409 27.6322 121.409 28.7905V33.4163H119.811V25.6553H119.811Z" fill="white"/>
<path d="M124.856 29.5652V29.5577C124.856 27.13 126.262 25.5078 128.444 25.5078C130.625 25.5078 131.963 27.0721 131.963 29.4028V29.9413H126.454C126.483 31.4095 127.289 32.2654 128.561 32.2654C129.508 32.2654 130.137 31.7782 130.336 31.1958L130.359 31.137H131.874L131.86 31.2182C131.608 32.4503 130.41 33.5712 128.524 33.5712C126.239 33.5712 124.855 32.0144 124.855 29.5652H124.856ZM126.476 28.8129H130.38C130.247 27.4698 129.492 26.8136 128.45 26.8136C127.408 26.8136 126.616 27.5146 126.476 28.8129Z" fill="white"/>
<path d="M47.4266 20.6608C46.4302 21.3515 45.7538 22.045 45.3954 22.7413C45.0371 23.4385 44.8584 24.1927 44.8584 25.0038C44.8584 25.6459 44.965 26.234 45.1774 26.7669C45.3898 27.2999 45.6901 27.8058 46.0794 28.2846C46.4676 28.7634 47.1179 29.2385 48.0292 29.7108C47.6765 30.7403 47.1301 31.7913 46.39 32.8637C45.649 33.9362 44.9781 34.6969 44.3765 35.1449C43.7749 35.5929 43.2014 35.8169 42.655 35.8169C42.2181 35.8169 41.6286 35.6779 40.8876 35.3988L40.5414 35.2718L39.9763 35.0357C39.5759 34.9144 39.1324 34.8537 38.6468 34.8537C38.1612 34.8537 37.5905 34.9629 36.9711 35.1813L36.5342 35.3446L35.9878 35.563C35.5508 35.7329 35.113 35.8179 34.676 35.8179C33.7526 35.8179 32.7627 35.1729 31.7064 33.882C30.6501 32.5912 29.851 31.2042 29.3102 29.7201C28.7695 28.2361 28.5 26.7371 28.5 25.2222C28.5 23.2714 29.0558 21.6483 30.1673 20.3518C31.2788 19.0554 32.7879 18.4076 34.6947 18.4076C35.3871 18.4076 36.0364 18.5346 36.6436 18.7894L37.0628 18.9527L37.4997 19.1347C37.888 19.2925 38.1977 19.3709 38.4288 19.3709C38.7684 19.3709 39.109 19.3046 39.4486 19.1711L40.0315 18.9527L40.4507 18.7894C41.1309 18.5346 41.884 18.4076 42.7093 18.4076C44.6647 18.4076 46.2375 19.159 47.4276 20.6608H47.4266ZM42.7991 12C42.8234 12.2669 42.8356 12.4723 42.8356 12.6179C42.8356 13.3693 42.6166 14.1449 42.1797 14.9439C41.7428 15.7438 41.1711 16.3645 40.4675 16.8069C39.763 17.2493 38.9855 17.4705 38.1359 17.4705C38.0995 17.1793 38.0817 16.9674 38.0817 16.8339C38.0817 16.1918 38.2735 15.516 38.6552 14.8076C39.0379 14.0992 39.5572 13.4962 40.213 12.9996C40.8689 12.5031 41.6099 12.1885 42.4361 12.0541C42.509 12.042 42.6297 12.0243 42.8 12H42.7991Z" fill="white"/>
</svg>
