<svg width="115" height="40" viewBox="0 0 115 40" fill="none" xmlns="http://www.w3.org/2000/svg">
<g clip-path="url(#clip0_1_1315)">
<path d="M39.2629 10.4909L39.2578 10.4494C38.736 5.17265 34.59 0.998268 29.3489 0.471937C23.0665 -0.156967 16.7388 -0.156967 10.4564 0.469865L10.3854 0.472973C5.14132 0.998268 0.991114 5.17576 0.46938 10.4567V10.4909C-0.156289 16.8131 -0.156289 23.186 0.468351 29.5113V29.5445C0.991114 34.8244 5.14132 38.9998 10.3864 39.523L10.4616 39.5313C16.7399 40.1571 23.0665 40.1571 29.3489 39.5261C34.59 39.0008 38.736 34.8264 39.2578 29.5486L39.2629 29.5113C39.8834 23.186 39.8834 16.8131 39.2629 10.4909ZM32.5823 21.4195C31.7672 27.8246 26.3317 32.7771 19.7478 32.7771C15.9889 32.7771 12.6033 31.1617 10.2404 28.5856C9.94921 28.2682 9.52963 28.0945 9.10058 28.1329C5.64564 28.4424 3.35592 28.1353 3.07085 27.1439C2.80432 26.1917 4.41686 24.792 7.26427 23.2886C7.27353 23.2824 7.27971 23.2803 7.28794 23.2731C7.28485 23.271 7.28485 23.2679 7.28485 23.2679C10.2269 21.7138 14.4656 20.0508 19.2837 18.6594C19.3598 18.6355 23.297 17.4596 23.3773 17.4378L23.0336 16.2681C22.8175 16.3344 18.7404 17.5518 18.5201 17.614C15.014 18.6275 11.6575 19.2292 8.7704 19.4287C7.69595 19.5029 6.81134 18.6118 6.99056 17.5498C8.02819 11.4012 13.345 6.71746 19.7468 6.71746C25.2839 6.71746 30.0103 10.2206 31.8575 15.1468C32.0695 15.7119 32.6127 16.0957 33.216 16.078C35.701 16.005 37.2975 16.3568 37.531 17.1747C37.8263 18.2065 35.8941 19.7646 32.5822 21.419C32.5819 21.4192 32.582 21.4195 32.5823 21.4195Z" fill="white"/>
<path d="M25.0336 11.9075L26.2263 14.3344C26.2407 14.3654 26.2706 14.385 26.3035 14.3923L28.9712 14.7799C29.1411 14.8037 29.2081 15.0114 29.0865 15.1313L27.1574 17.0176C27.1306 17.0445 27.1213 17.0786 27.1254 17.1127L27.5817 19.7783C27.6075 19.9437 27.4334 20.0698 27.2851 19.9933L24.8997 18.7354C24.8677 18.7189 24.8327 18.7189 24.8018 18.7354L22.4123 19.9933C22.264 20.0698 22.0889 19.9437 22.1177 19.7783L22.575 17.1127C22.5781 17.0786 22.5678 17.0434 22.5451 17.0176L20.6139 15.1313C20.4934 15.0114 20.5614 14.8047 20.7262 14.7799L23.3928 14.3923C23.4299 14.3861 23.4598 14.3654 23.4752 14.3344L24.6669 11.9075C24.74 11.7587 24.9594 11.7587 25.0325 11.9075H25.0336Z" fill="white"/>
<path d="M46.4637 5.84448C45.6047 5.84448 45.0918 6.35094 45.0918 7.20055C45.0918 8.05017 45.6047 8.55559 46.4637 8.55559H51.2943V24.2434C51.2943 25.1086 51.7939 25.6243 52.6312 25.6243C53.4686 25.6243 53.9784 25.1086 53.9784 24.2434V8.55559H58.7617C59.6207 8.55559 60.1336 8.04913 60.1336 7.20055C60.1336 6.35198 59.6207 5.84448 58.7617 5.84448H46.4637Z" fill="white"/>
<path d="M83.869 5.81714C82.5537 5.81714 81.8574 6.50654 81.8574 7.81197V12.0135C81.8574 12.8414 82.3013 13.2983 83.1078 13.2983C83.9143 13.2983 84.3479 12.8425 84.3479 12.0135V8.3329H93.5219C94.3469 8.3329 94.8022 7.88742 94.8022 7.07812C94.8022 6.26882 94.348 5.81714 93.5219 5.81714H83.869Z" fill="white"/>
<path d="M84.9028 14.4268C84.0912 14.4268 83.4093 14.7131 82.8202 15.3043C82.2269 15.9069 81.9375 16.6056 81.9375 17.4417V23.6433C81.9375 24.9487 82.6327 25.6381 83.949 25.6381H93.6545C94.4795 25.6381 94.9348 25.1927 94.9348 24.3833C94.9348 23.574 94.4805 23.1337 93.6545 23.1337H84.428V17.4417C84.428 17.0562 84.5732 16.9136 84.9667 16.9136H93.3919C94.2055 16.9136 94.6546 16.4681 94.6546 15.6588C94.6546 14.8495 94.2055 14.4268 93.3919 14.4268H84.9018H84.9028Z" fill="white"/>
<path d="M112.291 5.80108L112.254 5.80418C111.949 5.84139 111.665 6.01917 111.409 6.33442L105.373 13.798L99.3496 6.31581C99.055 5.98196 98.7357 5.81142 98.3989 5.81142C98.1229 5.81142 97.8478 5.92718 97.5852 6.1525C97.2834 6.39643 97.1176 6.66723 97.0774 6.98558C97.0527 7.30082 97.1712 7.62124 97.4286 7.93545L111.419 25.2026C111.701 25.5344 112.03 25.7101 112.371 25.7101C112.642 25.7101 112.912 25.6016 113.173 25.3918C113.485 25.1499 113.655 24.8853 113.694 24.5835C113.698 24.5504 113.699 24.5174 113.7 24.4843V24.4616C113.697 24.1804 113.574 23.8879 113.334 23.5902L106.98 15.7618L113.329 7.93958C113.608 7.60263 113.725 7.28119 113.687 6.9556C113.649 6.6662 113.479 6.39333 113.199 6.16801C112.915 5.92718 112.619 5.80005 112.34 5.80005C112.325 5.80005 112.312 5.80005 112.292 5.80005" fill="white"/>
<path d="M102.661 17.6055C102.347 17.6292 102.046 17.807 101.766 18.1378L97.4597 23.5672C96.9571 24.1884 97.0086 24.823 97.608 25.3564C97.8727 25.5848 98.1446 25.7006 98.4166 25.7006C98.7585 25.7006 99.0871 25.5207 99.3971 25.1621L103.688 19.7367C103.955 19.4132 104.076 19.0814 104.042 18.7796C104.017 18.4882 103.855 18.2163 103.562 17.9714C103.282 17.7212 103.01 17.6055 102.7 17.6055H102.661Z" fill="white"/>
<path d="M62.6885 7.99328V24.3261C62.6885 25.1602 63.1561 25.6388 63.9708 25.6388C64.7856 25.6388 65.2398 25.1592 65.2398 24.3261V12.323C65.2398 11.5767 65.2305 10.8077 65.213 10.0336L65.1924 9.37209L68.7778 14.8191C69.0445 15.2036 69.4029 15.399 69.8417 15.399C70.6482 15.399 71.1107 14.9297 71.1107 14.1132C71.1107 13.8723 71.0396 13.6388 70.8964 13.4124L66.6251 6.97829C66.1111 6.25064 65.4633 5.88062 64.7001 5.88062C63.4023 5.88062 62.6875 6.631 62.6875 7.99328" fill="white"/>
<path d="M76.3897 7.19425V19.1705C76.3897 19.9002 76.4083 20.6527 76.4423 21.4051L76.4608 21.9922L73.0454 16.5493C72.7601 16.1483 72.4027 15.9457 71.9835 15.9457C71.1688 15.9457 70.7012 16.4149 70.7012 17.2325C70.7012 17.4868 70.7794 17.7245 70.9288 17.9343L75.1672 24.5844C75.6193 25.2842 76.2425 25.6397 77.0211 25.6397C78.2674 25.6397 78.9534 24.9214 78.9534 23.6201V7.19425C78.9534 6.36015 78.4857 5.88159 77.671 5.88159C76.8563 5.88159 76.3887 6.36118 76.3887 7.19425" fill="white"/>
<path d="M52.8702 32.6559H55.4367V33.8799H52.8702V32.6559ZM52.9814 35.7999H51.4082V30.1999H55.7704V31.4239H52.9814V35.7999Z" fill="white"/>
<path d="M60.7968 35.7999V30.1999H62.3701V35.7999H60.7968Z" fill="white"/>
<path d="M67.78 35.7999V30.1999H69.0751L72.1422 33.9279H71.5303V30.1999H73.0718V35.7999H71.7767L68.7096 32.0719H69.3214V35.7999H67.78Z" fill="white"/>
<path d="M77.8047 35.7999L80.26 30.1999H81.8094L84.2725 35.7999H82.6357L80.7129 30.9759H81.3326L79.4098 35.7999H77.8047ZM79.1476 34.7119L79.5528 33.5439H82.2702L82.6754 34.7119H79.1476Z" fill="white"/>
<path d="M89.0092 35.7999V30.1999H90.3043L93.3714 33.9279H92.7595V30.1999H94.301V35.7999H93.0059L89.9388 32.0719H90.5506V35.7999H89.0092Z" fill="white"/>
<path d="M102.474 35.9119C102.035 35.9119 101.627 35.8426 101.251 35.7039C100.88 35.5599 100.557 35.3572 100.281 35.0959C100.011 34.8346 99.7994 34.5279 99.6458 34.1759C99.4921 33.8186 99.4153 33.4266 99.4153 32.9999C99.4153 32.5732 99.4921 32.1839 99.6458 31.8319C99.7994 31.4746 100.011 31.1652 100.281 30.9039C100.557 30.6426 100.88 30.4426 101.251 30.3039C101.627 30.1599 102.035 30.0879 102.474 30.0879C102.988 30.0879 103.446 30.1786 103.849 30.3599C104.257 30.5412 104.596 30.8026 104.866 31.1439L103.865 32.0559C103.685 31.8426 103.486 31.6799 103.269 31.5679C103.057 31.4559 102.819 31.3999 102.554 31.3999C102.326 31.3999 102.117 31.4372 101.926 31.5119C101.735 31.5866 101.571 31.6959 101.434 31.8399C101.301 31.9786 101.195 32.1466 101.116 32.3439C101.042 32.5412 101.004 32.7599 101.004 32.9999C101.004 33.2399 101.042 33.4586 101.116 33.6559C101.195 33.8532 101.301 34.0239 101.434 34.1679C101.571 34.3066 101.735 34.4132 101.926 34.4879C102.117 34.5626 102.326 34.5999 102.554 34.5999C102.819 34.5999 103.057 34.5439 103.269 34.4319C103.486 34.3199 103.685 34.1572 103.865 33.9439L104.866 34.8559C104.596 35.1919 104.257 35.4532 103.849 35.6399C103.446 35.8212 102.988 35.9119 102.474 35.9119Z" fill="white"/>
<path d="M111.304 32.3679H113.887V33.5519H111.304V32.3679ZM111.416 34.5759H114.324V35.7999H109.858V30.1999H114.22V31.4239H111.416V34.5759Z" fill="white"/>
</g>
<defs>
<clipPath id="clip0_1_1315">
<rect width="114.815" height="40" fill="white"/>
</clipPath>
</defs>
</svg>
