<svg width="160" height="48" viewBox="0 0 160 48" fill="none" xmlns="http://www.w3.org/2000/svg">
<rect width="160" height="48" rx="8" fill="#1A2F45"/>
<path d="M62.6313 15.3784C62.6313 16.1037 62.414 16.6806 61.9784 17.1117C61.4837 17.6234 60.8396 17.8802 60.0471 17.8802C59.2546 17.8802 58.6434 17.6205 58.1128 17.1012C57.5812 16.5819 57.3164 15.937 57.3164 15.1685C57.3164 14.4001 57.5812 13.7552 58.1128 13.2359C58.6434 12.7165 59.2885 12.4559 60.0471 12.4559C60.4235 12.4559 60.7833 12.5287 61.1258 12.6734C61.4682 12.8191 61.7427 13.0117 61.9484 13.2531L61.4866 13.7102C61.1384 13.2991 60.6592 13.0941 60.0481 13.0941C59.4942 13.0941 59.0159 13.2857 58.6124 13.6699C58.2088 14.0542 58.0071 14.5534 58.0071 15.1676C58.0071 15.7818 58.2088 16.28 58.6124 16.6652C59.0159 17.0495 59.4942 17.2411 60.0481 17.2411C60.6349 17.2411 61.1248 17.0475 61.5157 16.6614C61.7699 16.4094 61.9173 16.0596 61.9561 15.6093H60.0471V14.9855H62.5944C62.6196 15.1216 62.6313 15.2509 62.6313 15.3774V15.3784Z" fill="white"/>
<path d="M66.6698 13.2085H64.2757V14.8546H66.4341V15.4784H64.2757V17.1246H66.6698V17.7627H63.6016V12.5703H66.6698V13.2085Z" fill="white"/>
<path d="M69.5149 17.7627H68.8388V13.2085H67.3711V12.5703H70.9835V13.2085H69.5159V17.7627H69.5149Z" fill="white"/>
<path d="M73.5977 17.7627V12.5703H74.2728V17.7627H73.5977Z" fill="white"/>
<path d="M77.2688 17.7627H76.5927V13.2085H75.125V12.5703H78.7365V13.2085H77.2688V17.7627Z" fill="white"/>
<path d="M85.5754 17.0917C85.0583 17.6168 84.4161 17.8784 83.6479 17.8784C82.8796 17.8784 82.2374 17.6168 81.7214 17.0917C81.2043 16.5676 80.9473 15.9256 80.9473 15.1667C80.9473 14.4078 81.2043 13.7659 81.7214 13.2417C82.2374 12.7166 82.8796 12.4541 83.6479 12.4541C84.4161 12.4541 85.0525 12.7176 85.5715 13.2446C86.0895 13.7716 86.3494 14.4117 86.3494 15.1658C86.3494 15.9199 86.0914 16.5666 85.5754 17.0908V17.0917ZM82.22 16.6567C82.609 17.0457 83.0852 17.2403 83.6479 17.2403C84.2105 17.2403 84.6878 17.0457 85.0758 16.6567C85.4648 16.2677 85.6597 15.7704 85.6597 15.1667C85.6597 14.5631 85.4648 14.0658 85.0758 13.6767C84.6878 13.2877 84.2105 13.0932 83.6479 13.0932C83.0852 13.0932 82.609 13.2877 82.22 13.6767C81.8319 14.0658 81.637 14.5631 81.637 15.1667C81.637 15.7704 81.8319 16.2677 82.22 16.6567Z" fill="white"/>
<path d="M87.2969 17.7627V12.5703H88.1195L90.6736 16.6091H90.7027L90.6736 15.6087V12.5703H91.3497V17.7627H90.6445L87.972 13.5285H87.9429L87.972 14.5288V17.7627H87.2969Z" fill="white"/>
<path d="M80.78 25.334C79.742 25.334 78.8001 25.7269 78.122 26.39C77.4537 27.0425 77.0405 27.9566 77.0405 29.0144C77.0405 30.1336 77.509 31.0975 78.2549 31.7577C78.9214 32.348 79.809 32.6948 80.7809 32.6948C81.6957 32.6948 82.5348 32.3873 83.1857 31.8603C84.0015 31.1991 84.5214 30.193 84.5214 29.0144C84.5214 28.1415 84.2401 27.3664 83.7667 26.756C83.0829 25.8745 81.9983 25.334 80.7819 25.334H80.78ZM80.78 31.2451C79.6508 31.2451 78.6769 30.3252 78.6769 29.0144C78.6769 27.7036 79.6508 26.7838 80.78 26.7838C81.9091 26.7838 82.883 27.6902 82.883 29.0144C82.883 30.3387 81.9091 31.2451 80.78 31.2451ZM72.6209 25.334C71.8478 25.334 71.129 25.5515 70.5324 25.9358C69.5371 26.5768 68.8814 27.6806 68.8814 29.0144C68.8814 30.0742 69.3014 30.9941 69.9785 31.6495C70.6556 32.3049 71.5907 32.6948 72.6209 32.6948C73.4755 32.6948 74.2642 32.4265 74.8957 31.9609C75.7862 31.3035 76.3614 30.2543 76.3614 29.0144C76.3614 28.3073 76.1771 27.6644 75.8551 27.1211C75.2061 26.0258 73.9994 25.334 72.6219 25.334H72.6209ZM72.6209 31.2451C71.4918 31.2451 70.5179 30.3252 70.5179 29.0144C70.5179 27.7036 71.4918 26.7838 72.6209 26.7838C73.7501 26.7838 74.724 27.6902 74.724 29.0144C74.724 30.3387 73.7501 31.2451 72.6209 31.2451ZM62.9156 26.4637V28.0246H66.6978C66.5853 28.9033 66.2885 29.5443 65.8364 29.9899C65.2864 30.5332 64.425 31.133 62.9146 31.133C60.5856 31.133 58.7658 29.2789 58.7658 26.9783C58.7658 24.6777 60.5865 22.8236 62.9146 22.8236C64.1709 22.8236 65.0885 23.3113 65.7656 23.9389L66.8802 22.838C65.9344 21.9459 64.6782 21.2627 62.9146 21.2627C61.8311 21.2627 60.8058 21.5588 59.925 22.0733C58.2128 23.0737 57.043 24.8981 57.043 26.9783C57.043 29.0585 58.2866 30.9988 60.0879 31.9762C60.9309 32.4333 61.8971 32.6948 62.9137 32.6948C64.6355 32.6948 65.9344 32.1372 66.95 31.0918C67.9948 30.0598 68.3188 28.6101 68.3188 27.4392C68.3188 27.077 68.2906 26.7426 68.2344 26.4637H62.9137H62.9156ZM102.608 27.6768C102.298 26.8547 101.352 25.335 99.4184 25.335C98.5929 25.335 97.8266 25.611 97.2222 26.1006C96.422 26.7483 95.9039 27.7688 95.9039 29.0154C95.9039 31.0784 97.4841 32.6958 99.6018 32.6958C101.309 32.6958 102.298 31.6638 102.707 31.065L101.437 30.2285C101.014 30.8417 100.435 31.2461 99.6027 31.2461C98.7704 31.2461 98.1768 30.8695 97.7965 30.1307L102.779 28.0955L102.609 27.6768H102.608ZM97.5268 28.9033C97.4841 27.4813 98.6414 26.756 99.4747 26.756C100.124 26.756 100.675 27.077 100.858 27.5369L99.1177 28.2508L97.5268 28.9033ZM93.4759 32.4725H95.1134V21.6546H93.4759V32.4725ZM90.7947 26.1571H90.7385C90.3718 25.725 89.6656 25.335 88.777 25.335C87.8885 25.335 87.0872 25.6809 86.446 26.2577C85.7 26.9285 85.2063 27.9125 85.2063 29.0288C85.2063 30.3185 85.8737 31.4281 86.8282 32.0797C87.4015 32.4706 88.0776 32.6958 88.777 32.6958C89.6666 32.6958 90.3718 32.3058 90.7385 31.8593H90.7947V32.3892C90.7947 33.7977 90.0323 34.5499 88.8052 34.5499C87.8031 34.5499 87.1823 33.8389 86.9281 33.2391L85.5022 33.8245C85.9115 34.8 86.998 35.9996 88.8042 35.9996C90.7239 35.9996 92.3468 34.8843 92.3468 32.1659V25.5583H90.7947V26.1581V26.1571ZM88.9177 31.2451C87.7885 31.2451 86.8428 30.3109 86.8428 29.0288C86.8428 27.7468 87.7885 26.7847 88.9177 26.7847C90.0468 26.7847 90.9072 27.7324 90.9072 29.0288C90.9072 30.3252 90.0323 31.2451 88.9177 31.2451ZM110.276 21.6536H106.359V32.4716H107.994V28.3734H110.276C111.318 28.3734 112.349 27.9451 113.038 27.1891C113.547 26.6295 113.868 25.8917 113.868 25.014C113.868 24.1363 113.556 23.4196 113.059 22.8629C112.37 22.0915 111.329 21.6536 110.275 21.6536H110.276ZM110.319 26.8671H107.994V23.159H110.319C111.541 23.159 112.235 24.1583 112.235 25.013C112.235 25.8677 111.541 26.8671 110.319 26.8671ZM120.421 25.3139C119.237 25.3139 118.011 25.8285 117.504 26.9697L118.955 27.5685C119.266 26.9697 119.843 26.7752 120.449 26.7752C121.294 26.7752 122.154 27.2763 122.168 28.1664V28.2776C121.872 28.1109 121.238 27.8598 120.463 27.8598C119.79 27.8598 119.112 28.017 118.557 28.3226C117.823 28.727 117.306 29.392 117.306 30.2955C117.306 31.0803 117.683 31.7137 118.258 32.1295C118.743 32.4802 119.367 32.6757 120.025 32.6757C121.124 32.6757 121.73 32.1889 122.111 31.6178H122.167V32.4524H123.745V28.3054C123.745 27.1651 123.234 26.3238 122.426 25.8294C121.873 25.4902 121.181 25.3139 120.42 25.3139H120.421ZM120.224 31.2422C119.688 31.2422 118.942 30.9778 118.942 30.3233C118.942 29.4887 119.872 29.1677 120.675 29.1677C121.394 29.1677 121.731 29.3211 122.169 29.5299C122.042 30.5322 121.169 31.2413 120.225 31.2413L120.224 31.2422ZM129.495 25.5496L128.719 27.4919L127.621 30.24H127.564L125.62 25.5496H123.859L125.265 28.7116L126.775 32.1046L125.112 35.7505H126.816L130.005 28.5133L131.311 25.5487H129.493L129.495 25.5496ZM114.771 32.4706H116.406V21.6527H114.771V32.4706Z" fill="white"/>
<path d="M44.653 19.7393L31.635 12.1945C30.9695 11.8084 30.1828 12.0297 29.7754 12.572L40.8009 23.526L44.653 19.7393Z" fill="url(#paint0_linear_1_1467)"/>
<path d="M29.5 33.5882C29.5 33.8929 29.5941 34.166 29.7512 34.3874L40.8001 23.5273L29.7745 12.5732C29.6038 12.8003 29.5 13.084 29.5 13.404V33.5892V33.5882Z" fill="url(#paint1_linear_1_1467)"/>
<path d="M44.5869 27.2879L49.0491 24.7017C49.9823 24.1603 49.9823 22.8275 49.0491 22.2871L44.6528 19.7393L40.8008 23.526L44.5869 27.2879Z" fill="url(#paint2_linear_1_1467)"/>
<path d="M29.752 34.3874C30.1516 34.9528 30.9567 35.1885 31.6348 34.7956L44.5869 27.2892L40.8008 23.5273L29.752 34.3874Z" fill="url(#paint3_linear_1_1467)"/>
<defs>
<linearGradient id="paint0_linear_1_1467" x1="12.1361" y1="-3.19303" x2="38.7211" y2="18.9198" gradientUnits="userSpaceOnUse">
<stop stop-color="#32A071"/>
<stop offset="0.07" stop-color="#2DA771"/>
<stop offset="0.48" stop-color="#15CF74"/>
<stop offset="0.8" stop-color="#06E775"/>
<stop offset="1" stop-color="#00F076"/>
</linearGradient>
<linearGradient id="paint1_linear_1_1467" x1="48.5022" y1="23.3701" x2="28.4524" y2="23.4899" gradientUnits="userSpaceOnUse">
<stop stop-color="#00A1FF"/>
<stop offset="0.26" stop-color="#00BEFF"/>
<stop offset="0.51" stop-color="#00D2FF"/>
<stop offset="0.76" stop-color="#00DFFF"/>
<stop offset="1" stop-color="#00E3FF"/>
</linearGradient>
<linearGradient id="paint2_linear_1_1467" x1="51.3102" y1="24.0319" x2="33.2149" y2="22.5954" gradientUnits="userSpaceOnUse">
<stop stop-color="#FFE000"/>
<stop offset="0.41" stop-color="#FFBD00"/>
<stop offset="0.78" stop-color="#FFA500"/>
<stop offset="1" stop-color="#FF9C00"/>
</linearGradient>
<linearGradient id="paint3_linear_1_1467" x1="48.955" y1="21.3024" x2="14.3821" y2="44.5375" gradientUnits="userSpaceOnUse">
<stop stop-color="#FF3A44"/>
<stop offset="1" stop-color="#C31162"/>
</linearGradient>
</defs>
</svg>
