<svg width="24" height="24" viewBox="0 0 24 24" fill="none" xmlns="http://www.w3.org/2000/svg">
<path d="M11.9999 13.67C10.1452 13.67 8.62988 12.163 8.62988 10.3C8.62988 8.43867 10.1435 6.94 11.9999 6.94C13.8546 6.94 15.3699 8.44699 15.3699 10.31C15.3699 12.1713 13.8563 13.67 11.9999 13.67ZM11.9999 7.44C10.4251 7.44 9.12988 8.72249 9.12988 10.31C9.12988 11.8961 10.4137 13.18 11.9999 13.18C13.586 13.18 14.8699 11.8961 14.8699 10.31C14.8699 8.72249 13.5747 7.44 11.9999 7.44Z" fill="url(#paint0_linear_1_1431)" stroke="url(#paint1_linear_1_1431)"/>
<path d="M12.0002 22.76C10.5202 22.76 9.03018 22.2 7.87018 21.09C4.92018 18.25 1.66018 13.72 2.89018 8.33C4.00018 3.44 8.27018 1.25 12.0002 1.25C12.0002 1.25 12.0002 1.25 12.0102 1.25C15.7402 1.25 20.0102 3.44 21.1202 8.34C22.3402 13.73 19.0802 18.25 16.1302 21.09C14.9702 22.2 13.4802 22.76 12.0002 22.76ZM12.0002 2.75C9.09018 2.75 5.35018 4.3 4.36018 8.66C3.28018 13.37 6.24018 17.43 8.92018 20C10.6502 21.67 13.3602 21.67 15.0902 20C17.7602 17.43 20.7202 13.37 19.6602 8.66C18.6602 4.3 14.9102 2.75 12.0002 2.75Z" fill="url(#paint2_linear_1_1431)"/>
<defs>
<linearGradient id="paint0_linear_1_1431" x1="11.807" y1="6.44" x2="18.1035" y2="11.2399" gradientUnits="userSpaceOnUse">
<stop stop-color="#00A3E0"/>
<stop offset="1" stop-color="#0068C8"/>
</linearGradient>
<linearGradient id="paint1_linear_1_1431" x1="11.807" y1="6.44" x2="18.1035" y2="11.2399" gradientUnits="userSpaceOnUse">
<stop stop-color="#00A3E0"/>
<stop offset="1" stop-color="#0068C8"/>
</linearGradient>
<linearGradient id="paint2_linear_1_1431" x1="11.5357" y1="1.25" x2="28.2822" y2="12.3693" gradientUnits="userSpaceOnUse">
<stop stop-color="#00A3E0"/>
<stop offset="1" stop-color="#0068C8"/>
</linearGradient>
</defs>
</svg>
